<svg id="svg" version="1.1" xmlns="http://www.w3.org/2000/svg" xmlns:xlink="http://www.w3.org/1999/xlink" width="400" height="451.54639175257734" viewBox="0, 0, 400,451.54639175257734"><g id="svgg"><path id="path0" d="M170.137 52.218 C 165.498 54.621,165.649 54.368,167.099 57.292 C 168.552 60.224,171.200 65.987,171.200 66.218 C 171.200 66.306,171.632 67.328,172.159 68.489 C 172.687 69.650,173.690 72.040,174.388 73.800 C 175.085 75.560,175.887 77.540,176.168 78.200 C 176.450 78.860,176.908 80.030,177.187 80.800 C 177.466 81.570,177.922 82.740,178.201 83.400 C 178.480 84.060,178.934 85.320,179.209 86.200 C 179.485 87.080,179.849 88.160,180.017 88.600 C 180.186 89.040,180.904 91.290,181.613 93.600 C 183.376 99.347,184.861 104.040,185.218 105.000 C 185.382 105.440,185.824 107.330,186.201 109.200 C 186.578 111.070,187.030 113.050,187.205 113.600 C 187.381 114.150,187.816 115.950,188.172 117.600 C 188.528 119.250,189.073 121.590,189.383 122.800 C 189.693 124.010,190.145 126.350,190.387 128.000 C 190.629 129.650,191.081 132.530,191.390 134.400 C 192.514 141.185,193.797 153.536,193.418 153.916 C 193.298 154.035,193.200 153.912,193.200 153.641 C 193.200 153.370,192.731 152.665,192.158 152.074 C 191.585 151.484,190.640 150.158,190.058 149.130 C 189.476 148.101,186.480 143.272,183.400 138.398 C 180.320 133.525,177.368 128.786,176.840 127.868 C 176.313 126.951,175.773 126.110,175.640 126.000 C 175.322 125.735,174.573 124.498,173.774 122.918 C 173.418 122.214,172.873 121.426,172.563 121.169 C 172.253 120.912,172.000 120.527,172.000 120.313 C 172.000 120.099,171.595 119.359,171.100 118.670 C 170.114 117.297,169.388 116.127,168.945 115.200 C 168.787 114.870,168.537 114.510,168.389 114.400 C 168.240 114.290,167.687 113.453,167.160 112.540 C 166.632 111.628,165.120 109.141,163.800 107.015 L 161.400 103.149 159.923 103.376 C 156.037 103.971,156.057 103.902,158.302 108.800 C 158.958 110.230,159.902 112.300,160.400 113.400 C 164.186 121.759,167.131 127.896,173.642 141.000 C 176.703 147.160,179.721 153.100,180.350 154.200 C 185.540 163.284,187.600 166.922,187.600 167.004 C 187.600 167.056,188.770 169.124,190.200 171.600 C 192.762 176.035,193.214 177.200,192.373 177.200 C 191.091 177.200,170.575 165.879,169.200 164.413 C 169.090 164.296,168.370 163.854,167.600 163.432 C 158.694 158.546,146.749 147.453,140.158 137.945 C 135.615 131.393,129.616 120.767,129.604 119.251 C 129.601 118.867,129.450 118.821,129.100 119.099 C 128.825 119.317,127.943 119.614,127.140 119.758 C 124.239 120.281,124.418 122.294,128.192 131.600 C 129.331 134.408,129.612 135.049,131.705 139.600 C 134.745 146.210,142.107 157.007,147.425 162.656 C 147.662 162.907,148.298 163.627,148.839 164.256 C 149.381 164.885,151.075 166.480,152.603 167.800 C 154.131 169.120,155.926 170.752,156.591 171.427 C 157.256 172.102,158.631 173.272,159.647 174.027 C 160.662 174.782,162.584 176.255,163.916 177.300 C 165.249 178.345,166.533 179.200,166.770 179.200 C 167.006 179.200,167.200 179.380,167.200 179.600 C 167.200 179.820,167.406 180.000,167.657 180.000 C 167.908 180.000,169.218 180.698,170.569 181.551 C 176.579 185.346,186.156 189.606,188.671 189.601 C 190.455 189.598,190.799 190.521,190.809 195.329 C 190.813 197.788,191.078 203.040,191.397 207.000 C 191.716 210.960,191.982 215.505,191.989 217.100 L 192.000 219.999 194.379 222.514 C 197.451 225.762,199.573 228.548,200.690 230.800 C 201.181 231.790,201.743 232.870,201.939 233.200 C 203.171 235.275,204.400 238.130,204.400 238.917 C 204.400 239.425,204.559 240.011,204.753 240.220 C 206.095 241.663,206.897 255.030,205.830 258.173 C 205.493 259.166,205.320 260.246,205.445 260.574 C 205.571 260.901,205.387 261.744,205.037 262.446 C 204.687 263.148,204.399 264.010,204.398 264.361 C 204.396 264.713,204.126 265.516,203.798 266.146 C 203.469 266.776,203.200 267.612,203.200 268.003 C 203.200 268.394,202.930 268.818,202.600 268.945 C 202.270 269.071,202.000 269.631,202.000 270.187 C 202.000 270.744,201.820 271.200,201.600 271.200 C 201.380 271.200,201.200 271.566,201.200 272.013 C 201.200 272.459,200.930 272.929,200.600 273.055 C 200.270 273.182,200.000 273.539,200.000 273.848 C 200.000 274.373,199.257 275.948,198.796 276.400 C 198.476 276.714,196.258 280.113,195.796 280.997 C 195.547 281.474,195.491 282.681,195.656 283.997 C 195.808 285.209,195.953 288.810,195.977 292.000 C 196.002 295.190,196.189 299.510,196.395 301.600 C 196.600 303.690,196.869 308.460,196.994 312.200 C 197.119 315.940,197.400 321.160,197.618 323.800 C 198.204 330.875,198.829 343.213,199.198 355.000 C 199.377 360.720,199.728 369.270,199.978 374.000 C 200.610 385.971,199.798 403.484,198.206 412.200 C 197.845 414.180,197.395 416.700,197.207 417.800 C 197.018 418.900,196.652 420.610,196.392 421.600 C 196.132 422.590,195.736 424.120,195.513 425.000 C 194.865 427.550,193.949 430.497,193.383 431.851 C 192.331 434.368,200.175 439.695,208.600 442.185 C 209.920 442.575,211.450 443.035,212.000 443.208 C 214.026 443.843,220.292 444.600,223.400 444.585 C 228.473 444.560,241.121 442.212,242.247 441.086 C 242.405 440.929,242.908 440.799,243.367 440.797 C 244.245 440.794,254.516 435.742,256.462 434.356 C 257.722 433.459,257.998 431.481,257.165 429.326 C 256.764 428.289,256.585 427.133,255.654 419.567 C 255.476 418.119,255.178 416.689,254.993 416.389 C 254.808 416.090,254.519 414.575,254.351 413.022 C 254.183 411.470,253.763 408.670,253.417 406.800 C 253.072 404.930,252.633 402.140,252.441 400.600 C 252.248 399.060,251.973 397.515,251.828 397.167 C 251.684 396.818,251.393 395.243,251.183 393.667 C 250.972 392.090,250.631 389.541,250.425 388.001 C 250.218 386.462,249.933 385.015,249.791 384.785 C 249.648 384.555,249.376 383.069,249.185 381.483 C 248.994 379.897,248.553 377.070,248.204 375.200 C 247.856 373.330,247.475 370.720,247.359 369.400 C 247.242 368.080,246.972 366.540,246.758 365.979 C 246.398 365.037,246.166 363.576,245.234 356.400 C 245.048 354.970,244.777 353.515,244.631 353.167 C 244.485 352.818,244.188 351.198,243.972 349.567 C 242.998 342.225,242.834 341.178,242.591 340.785 C 242.448 340.555,242.173 339.069,241.980 337.483 C 241.786 335.897,241.338 332.980,240.984 331.000 C 240.631 329.020,240.188 326.050,240.002 324.400 C 239.815 322.750,239.368 319.780,239.008 317.800 C 238.649 315.820,238.207 313.120,238.026 311.800 C 237.845 310.480,237.492 308.320,237.241 307.000 C 236.289 301.999,236.000 300.113,236.000 298.902 C 236.000 298.215,235.804 297.145,235.565 296.526 C 235.164 295.489,234.985 294.333,234.054 286.767 C 233.876 285.319,233.595 283.916,233.431 283.650 C 233.267 283.384,232.976 281.869,232.785 280.283 C 232.594 278.697,232.150 275.780,231.799 273.800 C 231.447 271.820,230.998 269.030,230.801 267.600 C 230.126 262.706,229.557 259.400,229.178 258.172 C 228.970 257.496,228.800 255.928,228.800 254.687 L 228.800 252.431 230.300 252.038 C 231.125 251.821,232.340 251.534,233.000 251.399 C 234.627 251.066,238.416 250.012,239.400 249.619 C 239.840 249.443,240.740 249.080,241.400 248.812 C 242.060 248.544,243.383 248.058,244.339 247.733 C 245.296 247.408,247.601 246.435,249.463 245.571 C 251.324 244.707,252.930 244.000,253.032 244.000 C 253.133 244.000,253.929 243.550,254.800 243.000 C 256.544 241.899,258.462 241.724,260.000 242.527 C 261.772 243.451,265.739 244.649,270.800 245.788 C 272.450 246.159,274.340 246.617,275.000 246.806 C 279.134 247.988,287.516 248.179,293.000 247.217 C 299.552 246.068,303.078 244.928,308.600 242.173 C 316.506 238.229,316.539 238.199,316.327 235.261 C 316.057 231.534,315.876 231.460,311.300 233.210 C 301.182 237.080,283.803 238.127,276.800 235.289 C 276.250 235.066,275.038 234.657,274.106 234.380 C 271.436 233.586,270.800 232.630,272.205 231.525 C 278.281 226.745,282.393 222.139,291.245 210.200 C 293.865 206.666,297.616 200.267,301.210 193.200 C 303.084 189.516,308.000 177.606,308.000 176.751 C 308.000 176.608,307.505 176.397,306.900 176.283 C 306.295 176.169,305.080 175.804,304.200 175.472 L 302.600 174.868 301.857 176.534 C 299.815 181.115,295.452 189.423,294.559 190.431 C 294.252 190.779,294.000 191.166,294.000 191.291 C 294.000 191.643,291.659 195.042,288.826 198.800 C 285.729 202.910,278.101 210.478,277.225 210.310 C 276.572 210.186,273.400 204.137,273.076 202.400 C 272.973 201.850,272.593 200.410,272.231 199.200 C 271.576 197.011,271.079 193.885,270.553 188.661 C 270.265 185.794,270.964 176.408,271.645 174.000 C 272.544 170.822,272.377 170.213,270.565 170.080 C 268.346 169.918,267.942 170.657,265.582 179.200 C 263.530 186.626,263.168 198.195,264.763 205.400 C 265.249 207.600,265.806 210.120,265.999 211.000 C 266.193 211.880,266.632 213.388,266.976 214.350 C 267.973 217.146,267.562 217.974,264.446 219.441 C 263.651 219.816,261.399 220.905,259.443 221.861 C 257.486 222.817,255.736 223.600,255.554 223.600 C 255.371 223.600,254.272 224.025,253.111 224.544 C 251.950 225.064,250.460 225.717,249.800 225.996 C 247.684 226.890,238.322 230.000,237.745 230.000 C 237.440 230.000,236.877 230.166,236.495 230.369 C 235.154 231.082,226.820 233.258,225.922 233.130 C 224.973 232.994,224.700 232.024,223.634 225.000 C 223.433 223.680,222.974 220.890,222.614 218.800 C 222.254 216.710,221.788 213.873,221.580 212.495 C 221.372 211.118,221.026 209.228,220.811 208.295 C 220.154 205.451,220.348 203.101,221.545 199.369 C 222.174 197.406,222.915 194.990,223.191 194.000 C 223.467 193.010,223.838 191.750,224.014 191.200 C 224.191 190.650,224.640 189.120,225.012 187.800 C 226.239 183.444,226.818 181.415,227.181 180.200 C 227.379 179.540,227.835 177.830,228.196 176.400 C 229.289 172.064,229.538 171.090,230.140 168.800 C 230.744 166.503,231.643 162.547,232.412 158.800 C 232.661 157.590,233.120 155.568,233.432 154.306 C 233.744 153.044,234.000 151.581,234.000 151.055 C 234.000 149.018,235.133 147.396,238.300 144.903 C 240.044 143.529,241.850 142.089,242.312 141.703 C 242.775 141.316,244.450 140.010,246.034 138.800 C 247.618 137.590,250.374 135.456,252.157 134.057 C 253.941 132.659,256.012 131.039,256.760 130.457 C 262.061 126.339,268.622 121.009,268.733 120.732 C 268.807 120.550,269.039 120.400,269.250 120.400 C 269.924 120.400,271.286 118.900,270.855 118.634 C 270.632 118.496,270.303 118.620,270.125 118.909 C 269.946 119.198,269.260 119.698,268.600 120.019 C 267.053 120.771,257.842 126.906,257.667 127.300 C 257.593 127.465,257.389 127.600,257.213 127.600 C 257.036 127.600,254.687 129.085,251.992 130.900 C 234.711 142.539,235.705 142.090,236.371 137.959 C 237.990 127.931,238.607 116.063,238.544 96.200 C 238.490 79.436,238.302 74.767,237.153 61.700 L 236.652 56.000 235.426 56.006 C 233.077 56.018,233.196 54.951,233.041 77.429 C 232.932 93.181,232.743 99.505,232.259 103.600 C 231.907 106.570,231.439 110.530,231.218 112.400 C 230.998 114.270,230.633 116.429,230.409 117.197 C 230.184 117.966,230.000 119.123,230.000 119.769 C 230.000 120.415,229.827 121.496,229.615 122.172 C 229.403 122.847,228.930 124.840,228.564 126.600 C 228.198 128.360,227.671 130.700,227.394 131.800 C 227.117 132.900,226.661 134.880,226.382 136.200 C 225.558 140.094,224.544 143.973,223.400 147.600 C 222.284 151.141,221.378 154.152,220.814 156.200 C 220.523 157.254,218.281 163.565,216.549 168.200 C 216.220 169.080,215.769 170.402,215.546 171.138 C 214.994 172.963,214.651 172.429,214.346 169.268 C 214.066 166.371,213.506 163.333,211.016 151.200 C 210.474 148.559,209.547 144.620,208.615 141.000 C 207.588 137.007,206.357 132.169,206.021 130.800 C 205.831 130.030,205.380 128.410,205.018 127.200 C 204.655 125.990,204.203 124.370,204.011 123.600 C 203.820 122.830,203.365 121.210,203.000 120.000 C 202.635 118.790,202.179 117.170,201.987 116.400 C 201.795 115.630,201.404 114.070,201.119 112.933 C 200.833 111.796,200.465 110.731,200.300 110.566 C 200.135 110.402,200.000 109.953,200.000 109.569 C 200.000 108.621,194.665 91.955,193.416 89.000 C 193.137 88.340,192.629 87.080,192.288 86.200 C 187.070 72.749,179.237 57.458,174.439 51.358 L 173.674 50.386 170.137 52.218 M192.246 225.500 C 192.594 229.003,192.773 229.432,194.871 231.806 C 196.737 233.917,199.200 238.537,199.200 239.925 C 199.200 240.380,199.359 240.851,199.554 240.972 C 200.243 241.397,200.911 249.016,200.495 251.687 C 200.279 253.069,200.078 254.732,200.049 255.382 C 200.019 256.033,199.816 256.744,199.598 256.962 C 199.379 257.181,199.200 258.050,199.200 258.893 C 199.200 259.886,198.989 260.506,198.600 260.655 C 198.270 260.782,198.000 261.229,198.000 261.648 C 198.000 262.342,197.687 263.122,196.735 264.800 C 196.548 265.130,196.271 265.670,196.120 266.000 C 195.969 266.330,195.610 266.838,195.322 267.129 C 194.127 268.338,194.854 279.237,196.058 278.148 C 196.466 277.778,196.800 277.312,196.800 277.111 C 196.800 276.911,197.250 276.157,197.800 275.436 C 198.350 274.714,198.800 273.939,198.800 273.711 C 198.800 273.484,199.070 273.074,199.400 272.800 C 199.730 272.526,200.000 271.979,200.000 271.584 C 200.000 271.190,200.135 270.807,200.300 270.733 C 200.846 270.490,202.000 267.951,202.000 266.991 C 202.000 266.472,202.180 265.936,202.400 265.800 C 202.620 265.664,202.801 265.248,202.802 264.876 C 202.804 264.504,203.074 263.684,203.402 263.054 C 203.731 262.424,204.000 261.200,204.000 260.334 C 204.000 259.469,204.251 258.274,204.558 257.680 C 205.362 256.122,205.400 248.384,204.616 245.800 C 204.282 244.700,204.001 243.170,203.992 242.400 C 203.982 241.630,203.710 240.651,203.387 240.224 C 203.064 239.796,202.800 239.042,202.800 238.547 C 202.800 238.052,202.620 237.536,202.400 237.400 C 202.180 237.264,202.000 236.818,202.000 236.409 C 202.000 235.605,200.790 233.085,200.300 232.867 C 200.135 232.793,200.000 232.488,200.000 232.187 C 200.000 231.887,199.550 231.156,199.000 230.562 C 198.450 229.969,198.000 229.271,198.000 229.011 C 198.000 228.751,197.174 227.652,196.165 226.569 C 195.155 225.486,194.055 224.195,193.719 223.700 C 192.493 221.894,191.953 222.554,192.246 225.500 M192.959 238.100 C 193.112 241.455,193.404 245.460,193.606 247.000 C 193.808 248.540,194.001 251.870,194.034 254.400 C 194.110 260.269,194.488 264.100,195.008 264.271 C 195.717 264.504,198.000 259.124,198.000 257.219 C 198.000 256.805,198.187 256.404,198.417 256.328 C 198.680 256.240,198.856 253.757,198.894 249.594 C 198.955 243.033,198.731 241.441,197.360 238.668 C 197.052 238.045,196.800 237.323,196.800 237.063 C 196.800 236.804,196.350 236.107,195.800 235.513 C 195.250 234.920,194.794 234.292,194.787 234.117 C 194.768 233.674,193.336 232.000,192.975 232.000 C 192.812 232.000,192.805 234.745,192.959 238.100 M212.824 325.600 C 213.083 327.030,213.431 329.280,213.597 330.600 C 213.764 331.920,214.097 334.440,214.336 336.200 C 215.303 343.296,215.600 346.388,215.608 349.421 C 215.613 351.169,215.872 355.591,216.185 359.247 C 216.726 365.581,216.682 367.600,216.000 367.600 C 215.601 367.600,215.212 366.123,215.205 364.580 C 215.202 363.909,215.045 363.189,214.856 362.980 C 214.504 362.590,213.715 358.466,213.177 354.200 C 213.010 352.880,212.687 350.450,212.459 348.800 C 210.873 337.325,210.621 321.249,212.050 322.693 C 212.217 322.862,212.565 324.170,212.824 325.600 M224.436 356.295 C 224.787 357.219,225.009 358.728,225.976 366.800 C 227.206 377.070,227.922 385.363,228.202 392.600 C 228.322 395.680,228.530 399.505,228.665 401.100 C 228.801 402.709,228.752 403.996,228.555 403.990 C 227.968 403.974,226.801 401.258,226.790 399.884 C 226.785 399.178,226.594 397.880,226.365 397.000 C 226.137 396.120,225.793 394.230,225.602 392.800 C 225.411 391.370,224.962 388.400,224.604 386.200 C 223.507 379.465,222.296 357.091,222.937 355.419 C 223.260 354.577,223.932 354.970,224.436 356.295 " stroke="none" fill="#506953" fill-rule="evenodd"></path><path id="path1" d="M195.800 9.785 C 191.400 10.081,186.450 10.514,184.800 10.746 C 183.150 10.978,180.630 11.271,179.200 11.397 C 176.744 11.613,174.247 12.023,170.600 12.808 C 169.720 12.998,167.560 13.445,165.800 13.802 C 161.842 14.606,157.725 15.564,156.400 15.989 C 155.850 16.165,154.230 16.622,152.800 17.003 C 127.153 23.836,102.204 39.225,85.081 58.774 C 74.394 70.974,63.634 90.539,58.563 106.992 C 56.435 113.898,55.636 116.640,55.473 117.600 C 55.379 118.150,54.922 120.490,54.457 122.800 C 53.992 125.110,53.433 127.900,53.215 129.000 C 52.996 130.100,52.536 132.980,52.192 135.400 C 51.848 137.820,51.402 140.790,51.201 142.000 C 49.707 150.988,49.264 176.911,50.351 191.800 C 50.731 197.007,50.875 198.115,52.433 207.800 C 52.894 210.660,53.433 214.042,53.632 215.315 C 53.971 217.486,54.846 221.432,56.225 227.000 C 65.454 264.279,82.863 291.163,107.052 305.490 C 113.363 309.227,124.946 314.529,131.200 316.542 C 138.557 318.910,142.254 320.029,145.200 320.777 C 154.563 323.157,154.836 323.220,157.200 323.573 C 158.410 323.754,161.830 324.268,164.800 324.716 C 174.402 326.163,177.637 326.447,187.283 326.687 C 195.524 326.893,196.782 327.007,196.892 327.562 C 197.154 328.875,196.771 319.205,196.363 314.200 C 195.991 309.641,195.568 301.071,194.933 285.271 C 194.815 282.335,194.904 280.557,195.185 280.217 C 195.507 279.831,195.473 279.637,195.057 279.477 C 194.529 279.275,193.591 269.377,193.987 268.200 C 194.061 267.980,194.084 267.530,194.038 267.200 C 193.941 266.509,193.536 259.586,192.855 247.000 C 192.593 242.160,192.222 236.670,192.030 234.800 C 191.800 232.563,191.821 231.229,192.089 230.900 C 192.370 230.556,192.353 230.225,192.033 229.839 C 191.734 229.479,191.581 227.656,191.606 224.739 C 191.626 222.243,191.456 218.850,191.226 217.200 C 190.997 215.550,190.709 210.690,190.587 206.400 C 190.465 202.110,190.175 196.859,189.942 194.731 C 189.465 190.381,189.929 190.883,185.000 189.382 C 183.680 188.980,181.711 188.235,180.625 187.726 C 179.539 187.217,178.507 186.800,178.332 186.800 C 178.157 186.800,176.838 186.080,175.400 185.200 C 173.962 184.320,172.702 183.600,172.600 183.600 C 172.498 183.600,171.286 182.922,169.907 182.094 C 168.528 181.266,166.950 180.359,166.400 180.079 C 165.850 179.798,164.791 179.036,164.046 178.384 C 163.301 177.733,162.581 177.198,162.446 177.197 C 162.311 177.195,161.537 176.565,160.727 175.797 C 159.916 175.028,159.136 174.400,158.993 174.400 C 158.850 174.400,157.803 173.516,156.666 172.435 C 155.530 171.355,153.806 169.780,152.835 168.935 C 149.692 166.200,145.512 161.816,143.184 158.814 C 142.423 157.832,141.485 156.673,141.100 156.238 C 140.715 155.804,140.400 155.316,140.400 155.153 C 140.400 154.990,140.174 154.619,139.899 154.329 C 138.272 152.613,130.800 140.533,130.800 139.618 C 130.800 139.424,130.541 138.755,130.224 138.132 C 129.430 136.574,128.103 133.503,127.163 131.050 C 126.731 129.923,126.221 128.640,126.029 128.200 C 125.572 127.153,124.526 123.346,124.246 121.715 C 123.966 120.082,124.793 119.200,126.605 119.200 C 127.346 119.200,128.064 119.020,128.200 118.800 C 128.703 117.986,129.837 118.438,130.459 119.700 C 133.683 126.241,136.240 131.040,136.800 131.600 C 136.910 131.710,138.080 133.420,139.400 135.400 C 140.720 137.380,142.025 139.238,142.300 139.529 C 142.575 139.819,142.800 140.190,142.800 140.353 C 142.800 140.516,143.117 140.998,143.504 141.425 C 143.891 141.851,144.831 143.010,145.593 144.000 C 147.355 146.290,152.914 151.847,154.986 153.390 C 155.858 154.040,156.856 154.848,157.203 155.186 C 157.551 155.524,158.277 156.113,158.817 156.495 C 159.358 156.877,161.198 158.182,162.906 159.395 C 164.615 160.608,166.112 161.600,166.233 161.600 C 166.354 161.600,167.043 162.050,167.764 162.600 C 168.486 163.150,169.284 163.600,169.538 163.600 C 169.792 163.600,170.000 163.739,170.000 163.909 C 170.000 164.079,170.668 164.574,171.485 165.009 C 172.301 165.444,174.285 166.664,175.894 167.721 C 179.136 169.850,191.203 176.130,191.494 175.840 C 191.661 175.672,190.481 173.275,189.996 172.800 C 189.884 172.690,189.434 171.883,188.996 171.006 C 188.558 170.129,187.975 169.172,187.700 168.878 C 187.425 168.583,187.200 168.101,187.200 167.805 C 187.200 167.509,187.063 167.207,186.896 167.133 C 186.729 167.060,186.120 166.100,185.543 165.000 C 183.375 160.870,181.925 158.304,180.113 155.385 C 178.356 152.556,160.940 116.937,159.192 112.600 C 158.688 111.350,156.387 106.277,155.973 105.505 C 154.891 103.488,155.917 102.800,160.008 102.800 C 161.875 102.800,161.946 102.846,163.245 104.900 C 163.976 106.055,164.670 107.090,164.787 107.200 C 164.904 107.310,165.348 108.030,165.774 108.800 C 166.200 109.570,167.364 111.460,168.361 113.000 C 169.358 114.540,170.417 116.250,170.714 116.799 C 171.012 117.349,171.477 118.069,171.748 118.399 C 172.018 118.730,172.587 119.675,173.011 120.500 C 173.435 121.325,173.900 122.000,174.044 122.000 C 174.189 122.000,174.412 122.315,174.542 122.700 C 174.797 123.462,175.309 124.309,176.699 126.273 C 177.195 126.974,177.600 127.661,177.600 127.800 C 177.600 127.939,178.005 128.626,178.501 129.327 C 179.891 131.291,180.403 132.138,180.658 132.900 C 180.788 133.285,181.031 133.600,181.200 133.600 C 181.369 133.600,181.621 133.915,181.760 134.300 C 182.063 135.140,182.689 136.184,183.900 137.870 C 184.395 138.559,184.800 139.306,184.800 139.528 C 184.800 139.751,184.938 139.993,185.107 140.067 C 185.472 140.225,188.000 144.145,188.000 144.552 C 188.000 144.707,188.196 145.051,188.436 145.317 C 188.676 145.583,189.676 147.060,190.659 148.600 L 192.446 151.400 192.242 148.200 C 191.894 142.720,191.365 137.790,191.074 137.320 C 190.921 137.072,190.615 135.369,190.393 133.535 C 189.521 126.304,189.302 124.888,188.973 124.356 C 188.785 124.052,188.502 122.993,188.344 122.002 C 188.186 121.011,187.760 119.030,187.396 117.600 C 187.032 116.170,186.648 114.370,186.543 113.600 C 186.437 112.830,186.198 111.840,186.012 111.400 C 185.826 110.960,185.378 109.250,185.017 107.600 C 184.656 105.950,184.120 103.970,183.827 103.200 C 183.533 102.430,182.798 100.180,182.192 98.200 C 179.566 89.613,179.029 87.977,177.533 84.000 C 176.664 81.690,175.805 79.440,175.624 79.000 C 175.444 78.560,174.980 77.390,174.594 76.400 C 173.314 73.121,172.765 71.808,172.381 71.105 C 172.171 70.723,172.000 70.242,172.000 70.035 C 172.000 69.828,171.393 68.340,170.651 66.729 C 169.909 65.118,168.901 62.900,168.411 61.800 C 167.920 60.700,166.997 58.760,166.359 57.488 C 164.764 54.306,164.833 53.910,167.166 52.891 C 168.248 52.419,169.248 51.845,169.390 51.616 C 169.531 51.387,169.982 51.200,170.390 51.200 C 170.799 51.200,171.193 51.065,171.267 50.900 C 171.340 50.735,171.968 50.303,172.661 49.941 L 173.923 49.281 175.108 50.941 C 178.992 56.378,185.813 68.824,189.390 77.000 C 189.679 77.660,190.300 79.064,190.769 80.121 C 191.239 81.177,191.906 82.887,192.252 83.921 C 192.597 84.954,193.107 86.340,193.385 87.000 C 193.664 87.660,194.204 89.010,194.587 90.000 C 194.969 90.990,195.444 92.113,195.641 92.495 C 195.838 92.877,196.001 93.507,196.002 93.895 C 196.004 94.283,196.274 95.116,196.602 95.746 C 196.931 96.376,197.200 97.233,197.200 97.651 C 197.200 98.069,197.364 98.723,197.565 99.105 C 197.964 99.867,198.710 102.096,199.803 105.800 C 200.193 107.120,200.653 108.560,200.826 109.000 C 200.999 109.440,201.221 110.250,201.320 110.800 C 201.576 112.226,202.454 115.657,202.804 116.600 C 203.492 118.458,204.400 121.932,204.400 122.712 C 204.400 123.174,204.564 123.654,204.765 123.778 C 204.966 123.903,205.256 124.768,205.410 125.702 C 205.564 126.636,205.829 127.580,205.998 127.800 C 206.167 128.020,206.394 128.830,206.502 129.600 C 206.611 130.370,206.891 131.540,207.125 132.200 C 207.359 132.860,207.725 134.120,207.938 135.000 C 208.151 135.880,208.613 137.606,208.963 138.835 C 209.313 140.064,209.600 141.462,209.600 141.941 C 209.600 142.419,209.771 143.123,209.980 143.505 C 210.188 143.887,210.469 145.051,210.603 146.091 C 210.737 147.131,211.016 148.086,211.223 148.214 C 211.430 148.342,211.600 149.301,211.600 150.344 C 211.600 151.387,211.777 152.417,211.994 152.634 C 212.360 153.000,212.758 154.959,213.572 160.400 C 213.753 161.610,214.103 163.229,214.351 163.997 C 214.598 164.766,214.800 166.275,214.800 167.351 L 214.800 169.308 215.600 168.291 C 216.040 167.731,216.400 166.908,216.400 166.461 C 216.400 166.013,216.559 165.549,216.754 165.429 C 216.949 165.308,217.204 164.713,217.321 164.105 C 217.439 163.497,218.063 161.560,218.708 159.800 C 219.354 158.040,219.978 156.330,220.096 156.000 C 220.214 155.670,220.703 154.050,221.184 152.400 C 221.665 150.750,222.323 148.500,222.646 147.400 C 222.969 146.300,223.391 144.860,223.584 144.200 C 223.778 143.540,224.322 141.380,224.793 139.400 C 225.264 137.420,225.817 135.252,226.021 134.581 C 226.226 133.911,226.510 132.511,226.652 131.470 C 226.795 130.430,227.067 129.482,227.256 129.365 C 227.445 129.248,227.600 128.522,227.600 127.750 C 227.600 126.979,227.803 125.967,228.052 125.503 C 228.485 124.693,228.797 122.987,229.588 117.101 C 229.788 115.617,230.091 114.177,230.262 113.901 C 230.581 113.387,230.824 110.934,231.560 100.800 C 233.015 80.750,233.069 78.266,232.345 64.693 C 232.089 59.905,231.952 55.924,232.040 55.848 C 232.456 55.485,236.264 55.252,236.749 55.560 C 237.563 56.076,237.851 58.878,239.156 79.000 C 239.660 86.783,239.670 110.939,239.171 116.600 C 238.958 119.020,238.608 123.340,238.393 126.200 C 238.179 129.060,237.832 132.660,237.622 134.200 C 237.413 135.740,237.232 137.685,237.221 138.523 L 237.200 140.045 238.500 139.323 C 239.215 138.925,239.890 138.503,240.000 138.385 C 240.488 137.859,245.228 134.800,245.554 134.800 C 246.387 134.800,248.400 131.938,248.400 130.753 C 248.400 126.653,253.623 116.115,257.893 111.600 C 258.829 110.610,259.597 109.694,259.598 109.565 C 259.602 109.171,266.105 104.161,267.600 103.401 C 268.370 103.009,269.090 102.578,269.200 102.444 C 269.467 102.118,273.721 99.986,274.089 99.994 C 274.248 99.997,275.328 99.568,276.489 99.040 C 277.650 98.512,279.590 97.767,280.800 97.385 C 282.010 97.003,283.360 96.535,283.800 96.344 C 284.714 95.948,289.848 94.564,293.400 93.755 C 301.203 91.980,314.400 90.234,314.400 90.977 C 314.400 92.181,307.180 105.660,303.793 110.782 C 299.931 116.619,297.692 119.462,293.600 123.725 C 288.536 128.999,280.293 134.147,274.281 135.788 C 273.137 136.101,271.570 136.533,270.800 136.749 C 266.027 138.087,258.573 138.248,253.000 137.135 C 250.121 136.560,248.536 137.011,246.579 138.963 C 246.338 139.203,245.554 139.850,244.836 140.400 C 244.118 140.950,243.289 141.625,242.994 141.900 C 242.699 142.175,242.346 142.400,242.209 142.400 C 242.073 142.400,241.565 142.821,241.081 143.335 C 240.596 143.850,239.660 144.614,239.000 145.034 C 236.723 146.482,235.282 148.050,235.056 149.327 C 234.932 150.027,234.667 151.693,234.467 153.029 C 234.267 154.365,233.901 155.838,233.652 156.303 C 233.403 156.767,233.200 157.731,233.200 158.445 C 233.200 159.159,233.031 160.296,232.825 160.972 C 232.479 162.108,232.102 163.693,231.202 167.800 C 231.009 168.680,230.556 170.480,230.195 171.800 C 229.835 173.120,229.395 174.830,229.217 175.600 C 228.895 176.995,228.220 179.420,226.991 183.600 C 225.887 187.355,225.564 188.539,225.133 190.400 C 224.903 191.390,224.555 192.371,224.358 192.580 C 224.161 192.789,224.000 193.305,224.000 193.726 C 224.000 194.525,222.939 198.090,222.344 199.295 C 222.155 199.677,222.000 200.255,222.000 200.581 C 222.000 200.907,221.699 201.803,221.332 202.574 C 220.709 203.881,220.708 204.186,221.324 207.088 C 221.688 208.799,222.069 210.830,222.172 211.600 C 222.274 212.370,222.655 214.620,223.018 216.600 C 223.381 218.580,223.830 221.190,224.016 222.400 C 224.202 223.610,224.548 225.770,224.785 227.200 C 225.023 228.630,225.312 230.385,225.427 231.100 C 225.654 232.509,226.101 232.659,228.172 232.022 C 228.847 231.814,230.480 231.350,231.800 230.990 C 233.120 230.630,234.650 230.192,235.200 230.015 C 235.750 229.839,237.280 229.378,238.600 228.991 C 239.920 228.604,241.360 228.160,241.800 228.004 C 244.714 226.969,245.488 226.709,246.200 226.526 C 246.640 226.413,247.630 226.056,248.400 225.733 C 249.170 225.410,250.205 224.978,250.700 224.773 C 265.790 218.520,268.363 216.700,266.187 213.824 C 265.864 213.396,265.600 212.372,265.600 211.547 C 265.600 210.722,265.420 209.936,265.200 209.800 C 264.980 209.664,264.800 208.954,264.800 208.222 C 264.800 207.490,264.531 206.376,264.202 205.746 C 263.838 205.047,263.604 203.499,263.602 201.780 C 263.601 200.229,263.407 198.767,263.170 198.530 C 262.490 197.850,263.443 184.762,264.325 182.674 C 264.586 182.055,264.800 181.030,264.800 180.398 C 264.800 179.765,264.980 179.136,265.200 179.000 C 265.420 178.864,265.600 178.078,265.600 177.253 C 265.600 176.428,265.864 175.404,266.187 174.976 C 266.510 174.549,266.793 173.750,266.817 173.200 C 266.906 171.060,268.092 169.811,270.161 169.677 C 272.106 169.551,273.407 170.142,272.919 170.931 C 271.090 173.891,270.724 191.303,272.363 197.400 C 272.599 198.280,273.013 200.035,273.282 201.300 C 273.552 202.565,273.913 203.600,274.086 203.600 C 274.259 203.600,274.400 203.784,274.400 204.008 C 274.400 204.233,274.965 205.575,275.655 206.990 L 276.910 209.564 278.013 208.993 C 279.292 208.332,284.030 203.691,286.264 200.911 C 287.109 199.860,287.935 198.940,288.100 198.867 C 288.265 198.793,288.400 198.556,288.400 198.338 C 288.400 198.121,289.120 197.090,290.000 196.046 C 290.880 195.002,291.600 194.008,291.600 193.836 C 291.600 193.664,292.005 192.959,292.500 192.270 C 293.486 190.897,294.212 189.727,294.655 188.800 C 294.813 188.470,295.045 188.110,295.171 188.000 C 295.297 187.890,295.797 186.990,296.282 186.000 C 296.768 185.010,297.515 183.570,297.942 182.800 C 298.370 182.030,299.212 180.320,299.814 179.000 C 302.277 173.599,302.336 173.532,303.905 174.371 C 304.287 174.576,305.454 175.071,306.499 175.471 C 308.400 176.201,309.260 178.221,308.000 179.000 C 307.780 179.136,307.600 179.614,307.600 180.062 C 307.600 180.510,307.352 181.354,307.049 181.938 C 306.746 182.522,306.277 183.540,306.007 184.200 C 305.533 185.357,305.033 186.535,303.839 189.300 C 300.856 196.208,295.093 206.339,291.040 211.800 C 289.897 213.340,288.412 215.363,287.741 216.296 C 285.277 219.723,279.670 225.714,274.669 230.264 C 272.387 232.340,271.802 233.589,273.100 233.613 C 273.910 233.628,277.891 234.958,278.275 235.341 C 278.417 235.484,279.448 235.603,280.567 235.607 C 281.685 235.611,283.860 235.881,285.400 236.207 C 288.981 236.966,294.443 236.960,296.964 236.196 C 298.044 235.868,299.968 235.600,301.240 235.600 C 302.512 235.600,303.654 235.436,303.778 235.235 C 303.903 235.034,304.761 234.742,305.687 234.585 C 306.612 234.429,307.646 234.167,307.985 234.004 C 308.875 233.574,311.254 232.752,312.300 232.513 C 312.795 232.399,313.200 232.162,313.200 231.985 C 313.200 231.808,313.760 231.541,314.444 231.390 C 316.236 230.997,316.738 231.723,316.806 234.800 C 316.882 238.264,316.866 238.400,316.383 238.400 C 316.154 238.400,315.599 238.742,315.150 239.161 C 314.701 239.579,313.449 240.342,312.367 240.855 C 311.285 241.369,310.400 241.926,310.400 242.094 C 310.400 242.262,309.950 242.400,309.400 242.400 C 308.850 242.400,308.400 242.545,308.400 242.723 C 308.400 243.161,305.530 244.400,304.515 244.400 C 304.065 244.400,303.474 244.670,303.200 245.000 C 302.926 245.330,302.184 245.600,301.551 245.600 C 300.918 245.600,300.400 245.780,300.400 246.000 C 300.400 246.220,299.815 246.406,299.100 246.414 C 298.385 246.422,297.350 246.686,296.800 247.000 C 296.250 247.314,294.891 247.578,293.780 247.586 C 292.669 247.594,291.566 247.794,291.330 248.030 C 290.447 248.913,276.189 247.981,273.474 246.864 C 272.855 246.609,271.877 246.400,271.302 246.400 C 270.727 246.400,269.704 246.232,269.028 246.026 C 268.353 245.820,266.630 245.351,265.200 244.983 C 263.770 244.615,261.697 243.883,260.594 243.357 C 258.108 242.171,257.562 242.167,255.692 243.321 C 253.392 244.740,245.571 248.400,244.838 248.400 C 244.612 248.400,243.746 248.695,242.914 249.055 C 240.710 250.010,240.023 250.264,237.800 250.946 C 234.428 251.980,230.994 252.800,230.032 252.800 C 229.002 252.800,228.995 252.524,230.190 259.400 C 230.534 261.380,230.985 264.170,231.191 265.600 C 231.738 269.379,232.385 273.154,232.820 275.106 C 233.029 276.044,233.200 277.517,233.200 278.380 C 233.200 279.242,233.402 280.455,233.649 281.074 C 234.080 282.152,234.318 283.645,235.155 290.483 C 235.362 292.179,235.670 293.789,235.838 294.061 C 236.006 294.333,236.284 295.825,236.456 297.378 C 236.628 298.930,237.058 301.730,237.411 303.600 C 237.765 305.470,238.190 308.270,238.356 309.822 C 238.521 311.375,238.790 312.860,238.953 313.124 C 239.249 313.603,239.862 317.529,240.263 321.515 C 240.436 323.233,240.600 323.596,241.138 323.450 C 241.502 323.352,243.330 323.062,245.200 322.806 C 247.070 322.550,249.251 322.175,250.046 321.971 C 250.842 321.767,251.963 321.600,252.538 321.600 C 253.834 321.600,261.870 320.145,267.400 318.909 C 271.859 317.913,280.811 315.420,282.800 314.622 C 283.570 314.313,285.550 313.578,287.200 312.989 C 296.039 309.836,306.811 304.452,312.901 300.145 C 313.946 299.405,314.893 298.800,315.004 298.800 C 315.115 298.800,316.870 297.600,318.903 296.133 C 341.429 279.884,358.041 254.803,364.823 226.800 C 365.490 224.050,366.276 220.810,366.571 219.600 C 366.867 218.390,367.320 216.050,367.578 214.400 C 367.837 212.750,368.224 210.410,368.438 209.200 C 370.047 200.119,370.183 161.761,368.615 159.225 C 368.410 158.893,368.232 157.542,367.201 148.500 C 366.745 144.508,366.050 140.848,364.407 133.800 C 364.202 132.920,363.654 130.490,363.190 128.400 C 360.840 117.810,352.403 95.887,347.411 87.400 C 346.246 85.420,344.797 82.900,344.189 81.800 C 338.824 72.082,324.895 54.978,317.000 48.412 C 316.120 47.680,314.399 46.163,313.176 45.041 C 308.916 41.132,296.243 32.369,291.400 29.984 C 290.960 29.767,289.970 29.209,289.200 28.743 C 287.566 27.755,281.771 24.800,281.467 24.800 C 281.352 24.800,279.940 24.193,278.329 23.451 C 271.497 20.306,270.542 19.947,262.800 17.617 C 260.490 16.922,258.150 16.193,257.600 15.996 C 257.050 15.800,255.340 15.351,253.800 14.999 C 249.542 14.025,245.953 13.181,244.400 12.789 C 234.535 10.296,210.380 8.803,195.800 9.785 M202.000 30.414 C 203.210 31.942,204.383 33.419,204.607 33.696 C 205.111 34.321,211.428 43.882,213.132 46.600 C 214.927 49.463,220.800 61.268,220.800 62.013 C 220.800 62.358,220.957 62.811,221.149 63.020 C 221.340 63.229,221.809 64.480,222.190 65.800 C 222.570 67.120,223.044 68.650,223.241 69.200 C 225.086 74.343,226.693 90.159,225.420 90.648 C 224.168 91.128,216.625 84.854,213.394 80.644 C 210.554 76.944,209.962 76.082,208.834 74.000 C 208.178 72.790,207.272 71.260,206.819 70.600 C 206.113 69.569,204.865 66.510,202.822 60.800 C 201.891 58.197,200.458 51.304,199.994 47.200 C 199.808 45.550,199.466 42.490,199.235 40.400 C 198.534 34.075,198.691 27.559,199.543 27.618 C 199.684 27.627,200.790 28.886,202.000 30.414 M138.010 71.020 C 138.472 71.975,139.185 73.182,139.595 73.703 C 140.671 75.070,144.400 82.775,144.400 83.630 C 144.400 84.027,144.566 84.455,144.769 84.581 C 145.187 84.839,146.829 89.722,147.802 93.600 C 149.298 99.568,149.500 116.260,148.093 117.667 C 147.099 118.661,140.931 107.575,138.598 100.600 C 138.230 99.500,137.765 98.287,137.565 97.905 C 137.364 97.523,137.200 96.747,137.200 96.179 C 137.200 95.612,136.993 94.760,136.739 94.287 C 135.767 92.469,134.685 81.181,134.986 76.000 C 135.435 68.285,136.131 67.139,138.010 71.020 M158.449 189.574 C 162.970 190.760,163.273 190.866,165.200 191.941 C 166.190 192.493,167.367 193.137,167.816 193.372 C 168.264 193.607,169.238 194.367,169.980 195.061 L 171.328 196.322 169.564 197.123 C 157.595 202.563,146.796 203.398,135.936 199.723 C 129.952 197.698,127.646 196.581,128.257 196.000 C 129.698 194.629,136.937 191.276,140.600 190.283 C 145.248 189.022,146.242 188.882,150.849 188.841 C 154.272 188.811,156.277 189.004,158.449 189.574 M211.857 331.000 C 212.197 342.664,212.712 347.537,212.650 338.500 C 212.623 334.485,212.735 331.200,212.900 331.200 C 213.065 331.200,213.200 330.870,213.200 330.467 C 213.200 330.063,213.065 329.600,212.900 329.437 C 212.735 329.274,212.386 327.939,212.124 326.471 C 211.701 324.100,211.671 324.609,211.857 331.000 M197.293 330.000 C 197.293 330.770,197.375 331.085,197.476 330.700 C 197.576 330.315,197.576 329.685,197.476 329.300 C 197.375 328.915,197.293 329.230,197.293 330.000 M213.440 336.600 C 213.538 338.140,213.750 341.597,213.909 344.282 C 214.107 347.601,214.377 349.329,214.753 349.682 C 215.219 350.119,215.264 349.981,215.037 348.800 C 214.889 348.030,214.587 345.150,214.365 342.400 C 214.143 339.650,213.804 336.590,213.612 335.600 C 213.311 334.053,213.286 334.194,213.440 336.600 M197.724 337.400 C 197.726 338.720,197.801 339.212,197.890 338.493 C 197.979 337.774,197.977 336.694,197.886 336.093 C 197.795 335.492,197.722 336.080,197.724 337.400 M212.972 347.837 C 213.135 348.917,213.433 351.060,213.633 352.600 C 213.833 354.140,214.155 356.210,214.348 357.200 L 214.700 359.000 214.750 356.924 C 214.777 355.782,214.643 354.750,214.452 354.632 C 214.261 354.514,213.977 352.615,213.820 350.413 C 213.664 348.210,213.342 346.288,213.105 346.141 C 212.805 345.956,212.764 346.469,212.972 347.837 M198.109 350.400 C 198.109 351.390,198.187 351.795,198.282 351.300 C 198.378 350.805,198.378 349.995,198.282 349.500 C 198.187 349.005,198.109 349.410,198.109 350.400 M198.501 355.800 C 198.505 356.680,198.587 356.993,198.683 356.495 C 198.779 355.998,198.775 355.278,198.675 354.895 C 198.575 354.513,198.496 354.920,198.501 355.800 M215.260 358.867 C 215.227 359.454,215.096 360.264,214.970 360.667 C 214.752 361.360,214.765 361.361,215.195 360.690 C 215.446 360.299,215.577 359.489,215.486 358.890 L 215.320 357.800 215.260 358.867 M223.842 360.400 C 223.683 361.610,223.615 364.670,223.691 367.200 L 223.829 371.800 223.983 366.200 L 224.138 360.600 224.445 364.000 C 225.145 371.734,225.647 375.845,225.984 376.600 C 226.181 377.040,226.426 380.397,226.529 384.060 C 226.642 388.129,226.897 391.007,227.182 391.460 C 227.551 392.044,227.600 391.527,227.412 389.000 C 227.281 387.240,227.015 383.370,226.819 380.400 C 226.624 377.430,226.279 373.830,226.053 372.400 C 225.826 370.970,225.431 368.000,225.174 365.800 C 224.917 363.600,224.578 360.990,224.419 360.000 L 224.132 358.200 223.842 360.400 M198.931 370.600 C 198.933 372.140,199.005 372.721,199.092 371.891 C 199.179 371.061,199.177 369.801,199.089 369.091 C 199.000 368.381,198.929 369.060,198.931 370.600 M224.156 376.800 C 224.464 380.992,225.786 390.358,226.978 396.800 L 227.533 399.800 227.340 396.800 C 227.235 395.150,226.986 392.990,226.789 392.000 C 225.916 387.623,225.230 382.716,225.005 379.229 C 224.870 377.155,224.581 375.175,224.362 374.829 C 224.084 374.390,224.022 374.984,224.156 376.800 M199.301 377.400 C 199.305 378.280,199.387 378.593,199.483 378.095 C 199.579 377.598,199.575 376.878,199.475 376.495 C 199.375 376.113,199.296 376.520,199.301 377.400 M199.344 388.800 C 199.344 390.890,199.412 391.745,199.494 390.700 C 199.576 389.655,199.576 387.945,199.494 386.900 C 199.412 385.855,199.344 386.710,199.344 388.800 M198.893 398.800 C 198.893 399.570,198.975 399.885,199.076 399.500 C 199.176 399.115,199.176 398.485,199.076 398.100 C 198.975 397.715,198.893 398.030,198.893 398.800 M192.000 433.055 C 192.000 433.268,192.675 434.063,193.500 434.822 L 195.000 436.200 193.600 434.604 C 192.830 433.727,192.155 432.932,192.100 432.838 C 192.045 432.744,192.000 432.841,192.000 433.055 " stroke="none" fill="#f3b39b" fill-rule="evenodd"></path><path id="path2" d="M0.000 225.600 L 0.000 451.200 200.000 451.200 L 400.000 451.200 400.000 225.600 L 400.000 0.000 200.000 0.000 L 0.000 0.000 0.000 225.600 M224.200 10.208 C 237.439 11.339,239.916 11.656,244.400 12.789 C 245.953 13.181,249.542 14.025,253.800 14.999 C 255.340 15.351,257.050 15.800,257.600 15.996 C 258.150 16.193,260.490 16.922,262.800 17.617 C 270.542 19.947,271.497 20.306,278.329 23.451 C 279.940 24.193,281.352 24.800,281.467 24.800 C 281.771 24.800,287.566 27.755,289.200 28.743 C 289.970 29.209,290.960 29.767,291.400 29.984 C 296.243 32.369,308.916 41.132,313.176 45.041 C 314.399 46.163,316.120 47.680,317.000 48.412 C 324.895 54.978,338.824 72.082,344.189 81.800 C 344.797 82.900,346.246 85.420,347.411 87.400 C 349.480 90.918,351.074 94.299,354.671 102.800 C 357.089 108.516,362.157 123.743,363.190 128.400 C 363.654 130.490,364.202 132.920,364.407 133.800 C 366.050 140.848,366.745 144.508,367.201 148.500 C 368.232 157.542,368.410 158.893,368.615 159.225 C 370.183 161.761,370.047 200.119,368.438 209.200 C 368.224 210.410,367.837 212.750,367.578 214.400 C 367.320 216.050,366.867 218.390,366.571 219.600 C 366.276 220.810,365.490 224.050,364.823 226.800 C 358.041 254.803,341.429 279.884,318.903 296.133 C 316.870 297.600,315.115 298.800,315.004 298.800 C 314.893 298.800,313.946 299.405,312.901 300.145 C 306.811 304.452,296.039 309.836,287.200 312.989 C 285.550 313.578,283.570 314.313,282.800 314.622 C 280.811 315.420,271.859 317.913,267.400 318.909 C 261.870 320.145,253.834 321.600,252.538 321.600 C 251.963 321.600,250.842 321.771,250.046 321.980 C 249.251 322.189,246.934 322.584,244.897 322.858 C 240.253 323.483,240.181 323.526,240.774 325.323 C 241.215 326.657,241.596 329.059,242.349 335.233 C 242.526 336.681,242.800 338.077,242.960 338.335 C 243.119 338.592,243.406 340.017,243.597 341.501 C 244.575 349.078,244.782 350.447,245.000 350.800 C 245.130 351.011,245.408 352.492,245.617 354.092 C 245.827 355.691,246.269 358.530,246.600 360.400 C 246.931 362.270,247.369 365.060,247.573 366.600 C 247.777 368.140,248.054 369.685,248.189 370.033 C 248.324 370.382,248.607 371.957,248.817 373.533 C 249.028 375.110,249.369 377.659,249.575 379.199 C 249.782 380.738,250.063 382.178,250.200 382.400 C 250.337 382.622,250.602 384.017,250.788 385.501 C 250.974 386.986,251.424 389.910,251.787 392.000 C 252.151 394.090,252.598 396.880,252.781 398.200 C 253.193 401.163,253.910 405.241,254.418 407.506 C 254.628 408.444,254.800 409.830,254.800 410.586 C 254.800 411.342,255.070 412.998,255.400 414.265 C 255.730 415.531,256.000 417.192,256.000 417.956 C 256.000 418.719,256.166 419.896,256.370 420.572 C 257.181 423.268,258.475 432.940,258.141 433.810 C 257.883 434.481,254.726 436.434,250.400 438.598 C 248.750 439.423,247.080 440.261,246.690 440.459 C 245.928 440.846,239.113 443.022,236.800 443.617 C 226.622 446.235,214.818 445.594,205.200 441.902 C 200.896 440.250,195.077 436.666,192.927 434.343 L 192.054 433.400 193.250 429.800 C 193.909 427.820,194.604 425.480,194.796 424.600 C 194.988 423.720,195.527 421.290,195.993 419.200 C 197.544 412.251,197.639 411.747,198.029 408.363 C 199.312 397.217,199.587 383.934,198.893 366.600 C 198.629 360.000,198.240 350.100,198.028 344.600 C 197.629 334.256,197.306 329.208,196.950 327.762 C 196.750 326.948,196.461 326.916,187.272 326.687 C 177.636 326.447,174.401 326.163,164.800 324.716 C 161.830 324.268,158.410 323.754,157.200 323.573 C 154.836 323.220,154.563 323.157,145.200 320.777 C 142.254 320.029,138.557 318.910,131.200 316.542 C 93.361 304.362,69.941 277.225,57.203 230.800 C 55.940 226.196,54.053 218.017,53.632 215.315 C 53.433 214.042,52.894 210.660,52.433 207.800 C 50.875 198.115,50.731 197.007,50.351 191.800 C 49.264 176.911,49.707 150.988,51.201 142.000 C 51.402 140.790,51.848 137.820,52.192 135.400 C 52.536 132.980,52.996 130.100,53.215 129.000 C 53.433 127.900,53.992 125.110,54.457 122.800 C 54.922 120.490,55.379 118.150,55.473 117.600 C 55.636 116.640,56.435 113.898,58.563 106.992 C 63.634 90.539,74.394 70.974,85.081 58.774 C 100.993 40.609,125.130 25.127,148.200 18.288 C 149.300 17.962,151.370 17.384,152.800 17.003 C 154.230 16.622,155.850 16.165,156.400 15.989 C 157.725 15.564,161.842 14.606,165.800 13.802 C 167.560 13.445,169.720 12.998,170.600 12.808 C 174.247 12.023,176.744 11.613,179.200 11.397 C 180.630 11.271,183.150 10.978,184.800 10.746 C 195.330 9.265,210.716 9.055,224.200 10.208 M212.738 338.500 C 212.814 342.515,213.023 345.980,213.202 346.200 C 213.381 346.420,213.656 348.310,213.814 350.400 C 213.971 352.490,214.248 354.388,214.430 354.617 C 214.611 354.846,214.823 356.286,214.901 357.817 C 214.986 359.470,215.075 358.481,215.122 355.380 C 215.178 351.646,215.058 350.018,214.700 349.662 C 214.229 349.193,214.043 347.156,213.366 335.100 C 212.998 328.552,212.592 330.755,212.738 338.500 M224.069 367.326 C 224.031 371.026,224.171 374.372,224.380 374.763 C 224.589 375.154,224.952 377.707,225.186 380.437 C 225.421 383.166,225.887 386.930,226.223 388.800 C 226.558 390.670,226.988 393.370,227.178 394.800 L 227.523 397.400 227.392 394.600 C 227.319 393.060,227.082 390.720,226.864 389.400 C 226.646 388.080,226.452 384.793,226.434 382.095 C 226.415 379.397,226.223 376.877,226.006 376.495 C 225.639 375.848,225.195 372.294,224.445 364.000 C 224.167 360.925,224.131 361.243,224.069 367.326 " stroke="none" fill="#fbfbfb" fill-rule="evenodd"></path><path id="path3" d="M199.043 28.233 C 198.661 29.227,198.772 36.218,199.235 40.400 C 199.466 42.490,199.808 45.550,199.994 47.200 C 200.458 51.304,201.891 58.197,202.822 60.800 C 204.865 66.510,206.113 69.569,206.819 70.600 C 207.272 71.260,208.178 72.790,208.834 74.000 C 209.962 76.082,210.554 76.944,213.394 80.644 C 216.625 84.854,224.168 91.128,225.420 90.648 C 226.693 90.159,225.086 74.343,223.241 69.200 C 223.044 68.650,222.570 67.120,222.190 65.800 C 221.809 64.480,221.340 63.229,221.149 63.020 C 220.957 62.811,220.800 62.358,220.800 62.013 C 220.800 61.268,214.927 49.463,213.132 46.600 C 211.428 43.882,205.111 34.321,204.607 33.696 C 204.383 33.419,203.210 31.942,202.000 30.414 C 199.635 27.427,199.414 27.264,199.043 28.233 M135.459 70.349 C 134.913 73.817,134.775 80.508,135.171 84.200 C 135.922 91.185,136.266 93.403,136.739 94.287 C 136.993 94.760,137.200 95.612,137.200 96.179 C 137.200 96.747,137.364 97.523,137.565 97.905 C 137.765 98.287,138.230 99.500,138.598 100.600 C 140.931 107.575,147.099 118.661,148.093 117.667 C 149.500 116.260,149.298 99.568,147.802 93.600 C 146.829 89.722,145.187 84.839,144.769 84.581 C 144.566 84.455,144.400 84.027,144.400 83.630 C 144.400 82.775,140.671 75.070,139.595 73.703 C 139.185 73.182,138.472 71.975,138.010 71.020 C 136.879 68.684,135.766 68.391,135.459 70.349 M309.166 90.967 C 309.074 91.059,307.469 91.338,305.599 91.586 C 298.660 92.508,286.554 95.151,283.800 96.344 C 283.360 96.535,282.010 97.003,280.800 97.385 C 279.590 97.767,277.650 98.512,276.489 99.040 C 275.328 99.568,274.248 99.997,274.089 99.994 C 273.721 99.986,269.467 102.118,269.200 102.444 C 269.090 102.578,268.370 103.009,267.600 103.401 C 266.105 104.161,259.602 109.171,259.598 109.565 C 259.597 109.694,258.829 110.610,257.893 111.600 C 253.481 116.266,248.992 125.440,248.254 131.300 C 247.956 133.675,247.700 133.727,252.683 130.400 C 254.990 128.860,257.025 127.600,257.205 127.600 C 257.386 127.600,257.593 127.465,257.667 127.300 C 257.842 126.906,267.053 120.771,268.600 120.019 C 269.260 119.698,269.946 119.198,270.125 118.909 C 270.303 118.620,270.632 118.496,270.855 118.634 C 271.286 118.900,269.924 120.400,269.250 120.400 C 269.039 120.400,268.807 120.550,268.733 120.732 C 268.621 121.013,262.033 126.360,256.576 130.600 C 251.866 134.259,250.200 135.704,250.200 136.128 C 250.200 137.976,264.845 138.418,270.800 136.749 C 271.570 136.533,273.137 136.101,274.281 135.788 C 277.344 134.952,284.588 131.264,287.800 128.906 C 292.953 125.122,298.360 118.995,303.793 110.782 C 307.103 105.777,314.400 92.189,314.400 91.029 C 314.400 90.769,309.423 90.710,309.166 90.967 M144.600 189.257 C 139.503 190.451,137.722 191.073,132.800 193.378 C 131.140 194.155,128.740 195.541,128.257 196.000 C 127.646 196.581,129.952 197.698,135.936 199.723 C 146.796 203.398,157.595 202.563,169.564 197.123 L 171.328 196.322 169.980 195.061 C 169.238 194.367,168.264 193.607,167.816 193.372 C 167.367 193.137,166.190 192.493,165.200 191.941 C 163.273 190.866,162.970 190.760,158.449 189.574 C 155.229 188.729,147.601 188.555,144.600 189.257 " stroke="none" fill="#ca6122" fill-rule="evenodd"></path><path id="path4" d="M172.600 49.958 C 171.940 50.311,171.340 50.735,171.267 50.900 C 171.193 51.065,170.799 51.200,170.390 51.200 C 169.982 51.200,169.531 51.387,169.390 51.616 C 169.248 51.845,168.248 52.419,167.166 52.891 C 164.833 53.910,164.764 54.306,166.359 57.488 C 166.997 58.760,167.920 60.700,168.411 61.800 C 168.901 62.900,169.909 65.118,170.651 66.729 C 171.393 68.340,172.000 69.828,172.000 70.035 C 172.000 70.242,172.171 70.723,172.381 71.105 C 172.765 71.808,173.314 73.121,174.594 76.400 C 174.980 77.390,175.444 78.560,175.624 79.000 C 175.805 79.440,176.664 81.690,177.533 84.000 C 179.029 87.977,179.566 89.613,182.192 98.200 C 182.798 100.180,183.533 102.430,183.827 103.200 C 184.120 103.970,184.656 105.950,185.017 107.600 C 185.378 109.250,185.826 110.960,186.012 111.400 C 186.198 111.840,186.437 112.830,186.543 113.600 C 186.648 114.370,187.032 116.170,187.396 117.600 C 187.760 119.030,188.186 121.011,188.344 122.002 C 188.502 122.993,188.785 124.052,188.973 124.356 C 189.302 124.888,189.521 126.304,190.393 133.535 C 190.615 135.369,190.921 137.072,191.074 137.320 C 191.365 137.790,191.894 142.720,192.242 148.200 L 192.446 151.400 190.659 148.600 C 189.676 147.060,188.676 145.583,188.436 145.317 C 188.196 145.051,188.000 144.707,188.000 144.552 C 188.000 144.145,185.472 140.225,185.107 140.067 C 184.938 139.993,184.800 139.751,184.800 139.528 C 184.800 139.306,184.395 138.559,183.900 137.870 C 182.689 136.184,182.063 135.140,181.760 134.300 C 181.621 133.915,181.369 133.600,181.200 133.600 C 181.031 133.600,180.788 133.285,180.658 132.900 C 180.403 132.138,179.891 131.291,178.501 129.327 C 178.005 128.626,177.600 127.939,177.600 127.800 C 177.600 127.661,177.195 126.974,176.699 126.273 C 175.309 124.309,174.797 123.462,174.542 122.700 C 174.412 122.315,174.189 122.000,174.044 122.000 C 173.900 122.000,173.435 121.325,173.011 120.500 C 172.587 119.675,172.018 118.730,171.748 118.399 C 171.477 118.069,171.012 117.349,170.714 116.799 C 170.417 116.250,169.358 114.540,168.361 113.000 C 167.364 111.460,166.200 109.570,165.774 108.800 C 165.348 108.030,164.904 107.310,164.787 107.200 C 164.670 107.090,163.976 106.055,163.245 104.900 C 161.045 101.423,154.093 102.002,155.973 105.505 C 156.387 106.277,158.688 111.350,159.192 112.600 C 160.940 116.937,178.356 152.556,180.113 155.385 C 181.925 158.304,183.375 160.870,185.543 165.000 C 186.120 166.100,186.729 167.060,186.896 167.133 C 187.063 167.207,187.200 167.509,187.200 167.805 C 187.200 168.101,187.425 168.583,187.700 168.878 C 187.975 169.172,188.558 170.129,188.996 171.006 C 189.434 171.883,189.884 172.690,189.996 172.800 C 190.481 173.275,191.661 175.672,191.494 175.840 C 191.203 176.130,179.136 169.850,175.894 167.721 C 174.285 166.664,172.301 165.444,171.485 165.009 C 170.668 164.574,170.000 164.079,170.000 163.909 C 170.000 163.739,169.792 163.600,169.538 163.600 C 169.284 163.600,168.486 163.150,167.764 162.600 C 167.043 162.050,166.354 161.600,166.233 161.600 C 166.112 161.600,164.615 160.608,162.906 159.395 C 161.198 158.182,159.358 156.877,158.817 156.495 C 158.277 156.113,157.551 155.524,157.203 155.186 C 156.856 154.848,155.858 154.040,154.986 153.390 C 152.914 151.847,147.355 146.290,145.593 144.000 C 144.831 143.010,143.891 141.851,143.504 141.425 C 143.117 140.998,142.800 140.516,142.800 140.353 C 142.800 140.190,142.575 139.819,142.300 139.529 C 142.025 139.238,140.720 137.380,139.400 135.400 C 138.080 133.420,136.910 131.710,136.800 131.600 C 136.240 131.040,133.683 126.241,130.459 119.700 C 129.837 118.438,128.703 117.986,128.200 118.800 C 128.064 119.020,127.346 119.200,126.605 119.200 C 124.793 119.200,123.966 120.082,124.246 121.715 C 124.526 123.346,125.572 127.153,126.029 128.200 C 126.221 128.640,126.731 129.923,127.163 131.050 C 128.103 133.503,129.430 136.574,130.224 138.132 C 130.541 138.755,130.800 139.424,130.800 139.618 C 130.800 140.533,138.272 152.613,139.899 154.329 C 140.174 154.619,140.400 154.990,140.400 155.153 C 140.400 155.316,140.715 155.804,141.100 156.238 C 141.485 156.673,142.423 157.832,143.184 158.814 C 145.512 161.816,149.692 166.200,152.835 168.935 C 153.806 169.780,155.530 171.355,156.666 172.435 C 157.803 173.516,158.850 174.400,158.993 174.400 C 159.136 174.400,159.916 175.028,160.727 175.797 C 161.537 176.565,162.311 177.195,162.446 177.197 C 162.581 177.198,163.301 177.733,164.046 178.384 C 164.791 179.036,165.850 179.798,166.400 180.079 C 166.950 180.359,168.528 181.266,169.907 182.094 C 171.286 182.922,172.498 183.600,172.600 183.600 C 172.702 183.600,173.962 184.320,175.400 185.200 C 176.838 186.080,178.157 186.800,178.332 186.800 C 178.507 186.800,179.539 187.217,180.625 187.726 C 181.711 188.235,183.680 188.980,185.000 189.382 C 189.929 190.883,189.465 190.381,189.942 194.731 C 190.175 196.859,190.465 202.110,190.587 206.400 C 190.709 210.690,190.997 215.550,191.226 217.200 C 191.456 218.850,191.626 222.243,191.606 224.739 C 191.581 227.656,191.734 229.479,192.033 229.839 C 192.353 230.225,192.370 230.556,192.089 230.900 C 191.821 231.229,191.800 232.563,192.030 234.800 C 192.222 236.670,192.593 242.160,192.855 247.000 C 193.536 259.586,193.941 266.509,194.038 267.200 C 194.084 267.530,194.061 267.980,193.987 268.200 C 193.591 269.377,194.529 279.275,195.057 279.477 C 195.473 279.637,195.507 279.831,195.185 280.217 C 194.904 280.557,194.814 282.336,194.932 285.271 C 195.597 301.847,196.007 309.957,196.377 313.800 C 196.609 316.220,196.804 320.000,196.809 322.200 C 196.815 324.400,196.991 326.942,197.200 327.849 C 197.410 328.756,197.777 334.696,198.016 341.049 C 198.255 347.402,198.608 356.650,198.801 361.600 C 199.786 386.938,199.699 396.010,198.366 406.800 C 197.526 413.598,195.556 422.758,193.522 429.324 L 192.306 433.248 193.253 434.268 C 194.294 435.388,200.623 440.000,201.120 440.000 C 201.291 440.000,202.121 440.352,202.964 440.782 C 204.818 441.727,211.086 443.661,215.200 444.557 C 223.041 446.265,236.315 444.516,246.000 440.499 C 246.770 440.180,248.750 439.238,250.400 438.406 C 258.776 434.182,258.509 434.494,257.749 429.800 C 257.428 427.820,257.011 425.120,256.821 423.800 C 256.631 422.480,256.180 419.690,255.819 417.600 C 255.458 415.510,255.002 412.720,254.804 411.400 C 254.198 407.348,253.632 403.894,253.230 401.800 C 253.019 400.700,252.556 397.910,252.200 395.600 C 251.844 393.290,251.397 390.500,251.206 389.400 C 250.670 386.302,249.631 379.934,249.445 378.600 C 249.281 377.422,248.778 374.362,248.032 370.000 C 247.824 368.790,247.363 366.000,247.005 363.800 C 246.648 361.600,246.185 359.032,245.978 358.094 C 245.770 357.156,245.598 355.806,245.595 355.094 C 245.593 354.382,245.325 352.810,245.000 351.600 C 244.675 350.390,244.407 348.818,244.405 348.106 C 244.402 347.394,244.228 346.044,244.018 345.106 C 243.469 342.656,242.755 338.580,242.388 335.800 C 242.214 334.480,241.774 331.780,241.411 329.800 C 241.048 327.820,240.592 324.670,240.397 322.800 C 239.834 317.399,239.273 313.642,238.953 313.124 C 238.790 312.860,238.521 311.375,238.356 309.822 C 238.190 308.270,237.765 305.470,237.411 303.600 C 237.058 301.730,236.628 298.930,236.456 297.378 C 236.284 295.825,236.006 294.333,235.838 294.061 C 235.670 293.789,235.362 292.179,235.155 290.483 C 234.318 283.645,234.080 282.152,233.649 281.074 C 233.402 280.455,233.200 279.242,233.200 278.380 C 233.200 277.517,233.029 276.044,232.820 275.106 C 232.385 273.154,231.738 269.379,231.191 265.600 C 230.985 264.170,230.534 261.380,230.190 259.400 C 228.995 252.524,229.002 252.800,230.032 252.800 C 230.994 252.800,234.428 251.980,237.800 250.946 C 240.023 250.264,240.710 250.010,242.914 249.055 C 243.746 248.695,244.612 248.400,244.838 248.400 C 245.571 248.400,253.392 244.740,255.692 243.321 C 257.562 242.167,258.108 242.171,260.594 243.357 C 261.697 243.883,263.770 244.615,265.200 244.983 C 266.630 245.351,268.353 245.820,269.028 246.026 C 269.704 246.232,270.694 246.381,271.228 246.358 C 272.159 246.318,270.872 245.875,266.600 244.762 C 264.057 244.099,261.085 243.093,260.000 242.527 C 258.462 241.724,256.544 241.899,254.800 243.000 C 253.929 243.550,253.133 244.000,253.032 244.000 C 252.930 244.000,251.324 244.707,249.463 245.571 C 247.601 246.435,245.296 247.408,244.339 247.733 C 243.383 248.058,242.060 248.544,241.400 248.812 C 240.740 249.080,239.840 249.443,239.400 249.619 C 238.416 250.012,234.627 251.066,233.000 251.399 C 232.340 251.534,231.125 251.821,230.300 252.038 L 228.800 252.431 228.800 254.687 C 228.800 255.928,228.970 257.496,229.178 258.172 C 229.557 259.400,230.126 262.706,230.801 267.600 C 230.998 269.030,231.447 271.820,231.799 273.800 C 232.150 275.780,232.594 278.697,232.785 280.283 C 232.976 281.869,233.267 283.384,233.431 283.650 C 233.595 283.916,233.876 285.319,234.054 286.767 C 234.985 294.333,235.164 295.489,235.565 296.526 C 235.804 297.145,236.000 298.215,236.000 298.902 C 236.000 300.113,236.289 301.999,237.241 307.000 C 237.492 308.320,237.845 310.480,238.026 311.800 C 238.207 313.120,238.649 315.820,239.008 317.800 C 239.368 319.780,239.815 322.750,240.002 324.400 C 240.188 326.050,240.631 329.020,240.984 331.000 C 241.338 332.980,241.786 335.897,241.980 337.483 C 242.173 339.069,242.448 340.555,242.591 340.785 C 242.834 341.178,242.998 342.225,243.972 349.567 C 244.188 351.198,244.485 352.818,244.631 353.167 C 244.777 353.515,245.048 354.970,245.234 356.400 C 246.166 363.576,246.398 365.037,246.758 365.979 C 246.972 366.540,247.242 368.080,247.359 369.400 C 247.475 370.720,247.856 373.330,248.204 375.200 C 248.553 377.070,248.994 379.897,249.185 381.483 C 249.376 383.069,249.648 384.555,249.791 384.785 C 249.933 385.015,250.218 386.462,250.425 388.001 C 250.631 389.541,250.972 392.090,251.183 393.667 C 251.393 395.243,251.684 396.818,251.828 397.167 C 251.973 397.515,252.248 399.060,252.441 400.600 C 252.633 402.140,253.072 404.930,253.417 406.800 C 253.763 408.670,254.183 411.470,254.351 413.022 C 254.519 414.575,254.808 416.090,254.993 416.389 C 255.178 416.689,255.476 418.119,255.654 419.567 C 256.585 427.133,256.764 428.289,257.165 429.326 C 257.998 431.481,257.722 433.459,256.462 434.356 C 254.516 435.742,244.245 440.794,243.367 440.797 C 242.908 440.799,242.405 440.929,242.247 441.086 C 241.121 442.212,228.473 444.560,223.400 444.585 C 220.292 444.600,214.026 443.843,212.000 443.208 C 211.450 443.035,209.920 442.575,208.600 442.185 C 200.175 439.695,192.331 434.368,193.383 431.851 C 193.949 430.497,194.865 427.550,195.513 425.000 C 195.736 424.120,196.132 422.590,196.392 421.600 C 196.652 420.610,197.018 418.900,197.207 417.800 C 197.395 416.700,197.845 414.180,198.206 412.200 C 199.798 403.484,200.610 385.971,199.978 374.000 C 199.728 369.270,199.377 360.720,199.198 355.000 C 198.829 343.213,198.204 330.875,197.618 323.800 C 197.400 321.160,197.119 315.940,196.994 312.200 C 196.869 308.460,196.600 303.690,196.395 301.600 C 196.189 299.510,196.002 295.190,195.977 292.000 C 195.953 288.810,195.808 285.209,195.656 283.997 C 195.491 282.681,195.547 281.474,195.796 280.997 C 196.258 280.113,198.476 276.714,198.796 276.400 C 199.257 275.948,200.000 274.373,200.000 273.848 C 200.000 273.539,200.270 273.182,200.600 273.055 C 200.930 272.929,201.200 272.459,201.200 272.013 C 201.200 271.566,201.380 271.200,201.600 271.200 C 201.820 271.200,202.000 270.744,202.000 270.187 C 202.000 269.631,202.270 269.071,202.600 268.945 C 202.930 268.818,203.200 268.394,203.200 268.003 C 203.200 267.612,203.469 266.776,203.798 266.146 C 204.126 265.516,204.396 264.713,204.398 264.361 C 204.399 264.010,204.687 263.148,205.037 262.446 C 205.387 261.744,205.571 260.901,205.445 260.574 C 205.320 260.246,205.493 259.166,205.830 258.173 C 206.897 255.030,206.095 241.663,204.753 240.220 C 204.559 240.011,204.400 239.425,204.400 238.917 C 204.400 238.130,203.171 235.275,201.939 233.200 C 201.743 232.870,201.181 231.790,200.690 230.800 C 199.573 228.548,197.451 225.762,194.379 222.514 L 192.000 219.999 191.989 217.100 C 191.982 215.505,191.716 210.960,191.397 207.000 C 191.078 203.040,190.813 197.788,190.809 195.329 C 190.799 190.521,190.455 189.598,188.671 189.601 C 186.156 189.606,176.579 185.346,170.569 181.551 C 169.218 180.698,167.908 180.000,167.657 180.000 C 167.406 180.000,167.200 179.820,167.200 179.600 C 167.200 179.380,167.006 179.200,166.770 179.200 C 166.533 179.200,165.249 178.345,163.916 177.300 C 162.584 176.255,160.662 174.782,159.647 174.027 C 158.631 173.272,157.256 172.102,156.591 171.427 C 155.926 170.752,154.131 169.120,152.603 167.800 C 151.075 166.480,149.381 164.885,148.839 164.256 C 148.298 163.627,147.662 162.907,147.425 162.656 C 142.107 157.007,134.745 146.210,131.705 139.600 C 129.612 135.049,129.331 134.408,128.192 131.600 C 124.418 122.294,124.239 120.281,127.140 119.758 C 127.943 119.614,128.825 119.317,129.100 119.099 C 129.450 118.821,129.601 118.867,129.604 119.251 C 129.616 120.767,135.615 131.393,140.158 137.945 C 146.749 147.453,158.694 158.546,167.600 163.432 C 168.370 163.854,169.090 164.296,169.200 164.413 C 170.575 165.879,191.091 177.200,192.373 177.200 C 193.214 177.200,192.762 176.035,190.200 171.600 C 188.770 169.124,187.600 167.056,187.600 167.004 C 187.600 166.922,185.540 163.284,180.350 154.200 C 179.721 153.100,176.703 147.160,173.642 141.000 C 167.131 127.896,164.186 121.759,160.400 113.400 C 159.902 112.300,158.958 110.230,158.302 108.800 C 156.057 103.902,156.037 103.971,159.923 103.376 L 161.400 103.149 163.800 107.015 C 165.120 109.141,166.632 111.628,167.160 112.540 C 167.687 113.453,168.240 114.290,168.389 114.400 C 168.537 114.510,168.787 114.870,168.945 115.200 C 169.388 116.127,170.114 117.297,171.100 118.670 C 171.595 119.359,172.000 120.099,172.000 120.313 C 172.000 120.527,172.253 120.912,172.563 121.169 C 172.873 121.426,173.418 122.214,173.774 122.918 C 174.573 124.498,175.322 125.735,175.640 126.000 C 175.773 126.110,176.313 126.951,176.840 127.868 C 177.368 128.786,180.320 133.525,183.400 138.398 C 186.480 143.272,189.476 148.101,190.058 149.130 C 190.640 150.158,191.585 151.484,192.158 152.074 C 192.731 152.665,193.200 153.370,193.200 153.641 C 193.200 153.912,193.298 154.035,193.418 153.916 C 193.797 153.536,192.514 141.185,191.390 134.400 C 191.081 132.530,190.629 129.650,190.387 128.000 C 190.145 126.350,189.693 124.010,189.383 122.800 C 189.073 121.590,188.528 119.250,188.172 117.600 C 187.816 115.950,187.381 114.150,187.205 113.600 C 187.030 113.050,186.578 111.070,186.201 109.200 C 185.824 107.330,185.382 105.440,185.218 105.000 C 184.861 104.040,183.376 99.347,181.613 93.600 C 180.904 91.290,180.186 89.040,180.017 88.600 C 179.849 88.160,179.485 87.080,179.209 86.200 C 178.934 85.320,178.480 84.060,178.201 83.400 C 177.922 82.740,177.466 81.570,177.187 80.800 C 176.908 80.030,176.450 78.860,176.168 78.200 C 175.887 77.540,175.085 75.560,174.388 73.800 C 173.690 72.040,172.687 69.650,172.159 68.489 C 171.632 67.328,171.200 66.306,171.200 66.218 C 171.200 65.987,168.552 60.224,167.099 57.292 C 165.649 54.368,165.498 54.621,170.137 52.218 L 173.674 50.386 174.439 51.358 C 179.237 57.458,187.070 72.749,192.288 86.200 C 192.629 87.080,193.137 88.340,193.416 89.000 C 194.665 91.955,200.000 108.621,200.000 109.569 C 200.000 109.953,200.135 110.402,200.300 110.566 C 200.465 110.731,200.833 111.796,201.119 112.933 C 201.404 114.070,201.795 115.630,201.987 116.400 C 202.179 117.170,202.635 118.790,203.000 120.000 C 203.365 121.210,203.820 122.830,204.011 123.600 C 204.203 124.370,204.655 125.990,205.018 127.200 C 205.380 128.410,205.831 130.030,206.021 130.800 C 206.357 132.169,207.588 137.007,208.615 141.000 C 209.547 144.620,210.474 148.559,211.016 151.200 C 213.506 163.333,214.066 166.371,214.346 169.268 C 214.651 172.429,214.994 172.963,215.546 171.138 C 215.769 170.402,216.220 169.080,216.549 168.200 C 218.281 163.565,220.523 157.254,220.814 156.200 C 221.378 154.152,222.284 151.141,223.400 147.600 C 224.544 143.973,225.558 140.094,226.382 136.200 C 226.661 134.880,227.117 132.900,227.394 131.800 C 227.671 130.700,228.198 128.360,228.564 126.600 C 228.930 124.840,229.403 122.847,229.615 122.172 C 229.827 121.496,230.000 120.415,230.000 119.769 C 230.000 119.123,230.184 117.966,230.409 117.197 C 230.633 116.429,230.998 114.270,231.218 112.400 C 231.439 110.530,231.907 106.570,232.259 103.600 C 232.743 99.505,232.932 93.181,233.041 77.429 C 233.196 54.951,233.077 56.018,235.426 56.006 L 236.652 56.000 237.153 61.700 C 238.302 74.767,238.490 79.436,238.544 96.200 C 238.607 116.063,237.990 127.931,236.371 137.959 C 236.144 139.367,236.110 140.670,236.295 140.855 C 236.704 141.264,247.679 134.043,247.928 133.200 C 248.025 132.870,247.577 133.095,246.931 133.700 C 246.285 134.305,245.629 134.800,245.474 134.800 C 245.204 134.800,240.418 137.934,240.000 138.385 C 239.890 138.503,239.215 138.925,238.500 139.323 L 237.200 140.045 237.221 138.523 C 237.232 137.685,237.413 135.740,237.622 134.200 C 237.832 132.660,238.179 129.060,238.393 126.200 C 238.608 123.340,238.958 119.020,239.171 116.600 C 239.670 110.939,239.660 86.783,239.156 79.000 C 237.851 58.878,237.563 56.076,236.749 55.560 C 236.264 55.252,232.456 55.485,232.040 55.848 C 231.952 55.924,232.089 59.905,232.345 64.693 C 233.069 78.266,233.015 80.750,231.560 100.800 C 230.824 110.934,230.581 113.387,230.262 113.901 C 230.091 114.177,229.788 115.617,229.588 117.101 C 228.797 122.987,228.485 124.693,228.052 125.503 C 227.803 125.967,227.600 126.979,227.600 127.750 C 227.600 128.522,227.445 129.248,227.256 129.365 C 227.067 129.482,226.795 130.430,226.652 131.470 C 226.510 132.511,226.226 133.911,226.021 134.581 C 225.817 135.252,225.264 137.420,224.793 139.400 C 224.322 141.380,223.778 143.540,223.584 144.200 C 223.391 144.860,222.969 146.300,222.646 147.400 C 222.323 148.500,221.665 150.750,221.184 152.400 C 220.703 154.050,220.214 155.670,220.096 156.000 C 219.978 156.330,219.354 158.040,218.708 159.800 C 218.063 161.560,217.439 163.497,217.321 164.105 C 217.204 164.713,216.949 165.308,216.754 165.429 C 216.559 165.549,216.400 166.013,216.400 166.461 C 216.400 166.908,216.040 167.731,215.600 168.291 L 214.800 169.308 214.800 167.351 C 214.800 166.275,214.598 164.766,214.351 163.997 C 214.103 163.229,213.753 161.610,213.572 160.400 C 212.758 154.959,212.360 153.000,211.994 152.634 C 211.777 152.417,211.600 151.387,211.600 150.344 C 211.600 149.301,211.430 148.342,211.223 148.214 C 211.016 148.086,210.737 147.131,210.603 146.091 C 210.469 145.051,210.188 143.887,209.980 143.505 C 209.771 143.123,209.600 142.419,209.600 141.941 C 209.600 141.462,209.313 140.064,208.963 138.835 C 208.613 137.606,208.151 135.880,207.938 135.000 C 207.725 134.120,207.359 132.860,207.125 132.200 C 206.891 131.540,206.611 130.370,206.502 129.600 C 206.394 128.830,206.167 128.020,205.998 127.800 C 205.829 127.580,205.564 126.636,205.410 125.702 C 205.256 124.768,204.966 123.903,204.765 123.778 C 204.564 123.654,204.400 123.174,204.400 122.712 C 204.400 121.932,203.492 118.458,202.804 116.600 C 202.454 115.657,201.576 112.226,201.320 110.800 C 201.221 110.250,200.999 109.440,200.826 109.000 C 200.653 108.560,200.193 107.120,199.803 105.800 C 198.710 102.096,197.964 99.867,197.565 99.105 C 197.364 98.723,197.200 98.069,197.200 97.651 C 197.200 97.233,196.931 96.376,196.602 95.746 C 196.274 95.116,196.004 94.283,196.002 93.895 C 196.001 93.507,195.838 92.877,195.641 92.495 C 195.444 92.113,194.969 90.990,194.587 90.000 C 194.204 89.010,193.664 87.660,193.385 87.000 C 193.107 86.340,192.597 84.954,192.252 83.921 C 191.906 82.887,191.274 81.267,190.846 80.321 C 190.419 79.374,189.648 77.615,189.134 76.411 C 186.009 69.091,177.329 53.511,174.508 50.158 C 173.836 49.359,173.739 49.348,172.600 49.958 M248.538 136.900 C 246.704 138.233,242.664 141.340,242.169 141.800 C 241.932 142.020,240.251 143.370,238.433 144.800 C 235.131 147.397,234.000 148.994,234.000 151.055 C 234.000 151.581,233.744 153.044,233.432 154.306 C 233.120 155.568,232.661 157.590,232.412 158.800 C 231.643 162.547,230.744 166.503,230.140 168.800 C 229.538 171.090,229.289 172.064,228.196 176.400 C 227.835 177.830,227.379 179.540,227.181 180.200 C 226.818 181.415,226.239 183.444,225.012 187.800 C 224.640 189.120,224.191 190.650,224.014 191.200 C 223.838 191.750,223.467 193.010,223.191 194.000 C 222.915 194.990,222.174 197.406,221.545 199.369 C 220.348 203.101,220.154 205.451,220.811 208.295 C 221.026 209.228,221.372 211.118,221.580 212.495 C 221.788 213.873,222.254 216.710,222.614 218.800 C 222.974 220.890,223.433 223.680,223.634 225.000 C 224.700 232.024,224.973 232.994,225.922 233.130 C 226.820 233.258,235.154 231.082,236.495 230.369 C 236.877 230.166,237.440 230.000,237.745 230.000 C 238.322 230.000,247.684 226.890,249.800 225.996 C 250.460 225.717,251.950 225.064,253.111 224.544 C 254.272 224.025,255.371 223.600,255.554 223.600 C 255.736 223.600,257.486 222.817,259.443 221.861 C 261.399 220.905,263.651 219.816,264.446 219.441 C 267.562 217.974,267.973 217.146,266.976 214.350 C 266.632 213.388,266.193 211.880,265.999 211.000 C 264.343 203.462,263.931 200.731,263.720 195.874 C 263.581 192.677,263.339 190.570,263.146 190.874 C 262.672 191.621,262.719 198.303,263.200 198.600 C 263.420 198.736,263.601 200.142,263.602 201.724 C 263.604 203.493,263.835 205.041,264.202 205.746 C 264.531 206.376,264.800 207.490,264.800 208.222 C 264.800 208.954,264.980 209.664,265.200 209.800 C 265.420 209.936,265.600 210.722,265.600 211.547 C 265.600 212.372,265.864 213.396,266.187 213.824 C 267.954 216.159,266.877 217.397,260.400 220.482 C 257.102 222.053,254.938 223.009,250.200 224.986 C 249.320 225.354,248.240 225.807,247.800 225.994 C 247.360 226.180,246.640 226.423,246.200 226.532 C 245.488 226.709,244.734 226.962,241.800 228.004 C 241.360 228.160,239.920 228.604,238.600 228.991 C 237.280 229.378,235.750 229.839,235.200 230.015 C 234.650 230.192,233.120 230.630,231.800 230.990 C 230.480 231.350,228.847 231.814,228.172 232.022 C 226.101 232.659,225.654 232.509,225.427 231.100 C 225.312 230.385,225.023 228.630,224.785 227.200 C 224.548 225.770,224.202 223.610,224.016 222.400 C 223.830 221.190,223.381 218.580,223.018 216.600 C 222.655 214.620,222.274 212.370,222.172 211.600 C 222.069 210.830,221.688 208.799,221.324 207.088 C 220.708 204.186,220.709 203.881,221.332 202.574 C 221.699 201.803,222.000 200.907,222.000 200.581 C 222.000 200.255,222.155 199.677,222.344 199.295 C 222.939 198.090,224.000 194.525,224.000 193.726 C 224.000 193.305,224.161 192.789,224.358 192.580 C 224.555 192.371,224.903 191.390,225.133 190.400 C 225.564 188.539,225.887 187.355,226.991 183.600 C 228.220 179.420,228.895 176.995,229.217 175.600 C 229.395 174.830,229.835 173.120,230.195 171.800 C 230.556 170.480,231.009 168.680,231.202 167.800 C 232.102 163.693,232.479 162.108,232.825 160.972 C 233.031 160.296,233.200 159.159,233.200 158.445 C 233.200 157.731,233.403 156.767,233.652 156.303 C 233.901 155.838,234.267 154.365,234.467 153.029 C 234.667 151.693,234.932 150.027,235.056 149.327 C 235.282 148.050,236.723 146.482,239.000 145.034 C 239.660 144.614,240.596 143.850,241.081 143.335 C 241.565 142.821,242.073 142.400,242.209 142.400 C 242.346 142.400,242.699 142.175,242.994 141.900 C 243.289 141.625,244.041 141.010,244.665 140.534 C 245.289 140.058,246.250 139.276,246.800 138.796 C 247.350 138.316,248.295 137.666,248.900 137.352 C 249.505 137.037,250.000 136.604,250.000 136.390 C 250.000 135.858,249.949 135.875,248.538 136.900 M268.126 170.100 C 267.266 171.437,266.799 172.570,266.787 173.346 C 266.780 173.816,266.510 174.549,266.187 174.976 C 265.864 175.404,265.600 176.428,265.600 177.253 C 265.600 178.078,265.420 178.864,265.200 179.000 C 264.980 179.136,264.814 179.822,264.832 180.524 C 264.849 181.226,264.917 181.620,264.983 181.400 C 265.049 181.180,265.298 180.280,265.536 179.400 C 267.857 170.820,268.344 169.917,270.565 170.080 C 272.377 170.213,272.544 170.822,271.645 174.000 C 270.964 176.408,270.265 185.794,270.553 188.661 C 271.079 193.885,271.576 197.011,272.231 199.200 C 272.593 200.410,272.973 201.850,273.076 202.400 C 273.400 204.137,276.572 210.186,277.225 210.310 C 278.101 210.478,285.729 202.910,288.826 198.800 C 291.659 195.042,294.000 191.643,294.000 191.291 C 294.000 191.166,294.252 190.779,294.559 190.431 C 295.452 189.423,299.815 181.115,301.857 176.534 L 302.600 174.868 304.200 175.472 C 305.080 175.804,306.295 176.169,306.900 176.283 C 307.505 176.397,308.000 176.608,308.000 176.751 C 308.000 177.606,303.084 189.516,301.210 193.200 C 297.616 200.267,293.865 206.666,291.245 210.200 C 282.393 222.139,278.281 226.745,272.205 231.525 C 270.800 232.630,271.436 233.586,274.106 234.380 C 275.038 234.657,276.250 235.066,276.800 235.289 C 278.049 235.795,281.846 236.410,285.000 236.616 C 286.972 236.745,287.186 236.704,286.200 236.383 C 285.540 236.169,283.650 235.891,282.000 235.765 C 280.350 235.640,278.640 235.390,278.200 235.211 C 276.096 234.353,273.706 233.600,273.087 233.600 C 271.796 233.600,272.399 232.330,274.669 230.264 C 279.670 225.714,285.277 219.723,287.741 216.296 C 288.412 215.363,289.897 213.340,291.040 211.800 C 295.093 206.339,300.856 196.208,303.839 189.300 C 305.033 186.535,305.533 185.357,306.007 184.200 C 306.277 183.540,306.746 182.522,307.049 181.938 C 307.352 181.354,307.600 180.510,307.600 180.062 C 307.600 179.614,307.780 179.136,308.000 179.000 C 309.260 178.221,308.400 176.201,306.499 175.471 C 305.454 175.071,304.287 174.576,303.905 174.371 C 302.336 173.532,302.277 173.599,299.814 179.000 C 299.212 180.320,298.370 182.030,297.942 182.800 C 297.515 183.570,296.768 185.010,296.282 186.000 C 295.797 186.990,295.297 187.890,295.171 188.000 C 295.045 188.110,294.813 188.470,294.655 188.800 C 294.212 189.727,293.486 190.897,292.500 192.270 C 292.005 192.959,291.600 193.664,291.600 193.836 C 291.600 194.008,290.880 195.002,290.000 196.046 C 289.120 197.090,288.400 198.121,288.400 198.338 C 288.400 198.556,288.265 198.793,288.100 198.867 C 287.935 198.940,287.109 199.860,286.264 200.911 C 284.030 203.691,279.292 208.332,278.013 208.993 L 276.910 209.564 275.655 206.990 C 274.965 205.575,274.400 204.233,274.400 204.008 C 274.400 203.784,274.259 203.600,274.086 203.600 C 273.913 203.600,273.552 202.565,273.282 201.300 C 273.013 200.035,272.599 198.280,272.363 197.400 C 270.734 191.340,271.135 172.732,272.934 170.933 C 273.076 170.790,272.993 170.432,272.748 170.137 C 272.177 169.450,268.562 169.421,268.126 170.100 M264.077 183.338 C 263.815 184.064,263.630 185.904,263.667 187.428 C 263.705 188.981,263.792 189.496,263.866 188.600 C 263.939 187.720,264.204 185.961,264.456 184.690 C 264.976 182.064,264.785 181.380,264.077 183.338 M193.719 223.700 C 194.055 224.195,195.155 225.486,196.165 226.569 C 197.174 227.652,198.000 228.751,198.000 229.011 C 198.000 229.271,198.450 229.969,199.000 230.562 C 199.550 231.156,200.000 231.887,200.000 232.187 C 200.000 232.488,200.135 232.793,200.300 232.867 C 200.790 233.085,202.000 235.605,202.000 236.409 C 202.000 236.818,202.180 237.264,202.400 237.400 C 202.620 237.536,202.800 238.052,202.800 238.547 C 202.800 239.042,203.064 239.796,203.387 240.224 C 203.710 240.651,203.982 241.630,203.992 242.400 C 204.001 243.170,204.282 244.700,204.616 245.800 C 205.400 248.384,205.362 256.122,204.558 257.680 C 204.251 258.274,204.000 259.469,204.000 260.334 C 204.000 261.200,203.731 262.424,203.402 263.054 C 203.074 263.684,202.804 264.504,202.802 264.876 C 202.801 265.248,202.620 265.664,202.400 265.800 C 202.180 265.936,202.000 266.472,202.000 266.991 C 202.000 267.951,200.846 270.490,200.300 270.733 C 200.135 270.807,200.000 271.190,200.000 271.584 C 200.000 271.979,199.730 272.526,199.400 272.800 C 199.070 273.074,198.800 273.484,198.800 273.711 C 198.800 273.939,198.350 274.714,197.800 275.436 C 197.250 276.157,196.800 276.911,196.800 277.111 C 196.800 277.312,196.466 277.778,196.058 278.148 C 194.854 279.237,194.127 268.338,195.322 267.129 C 195.610 266.838,195.969 266.330,196.120 266.000 C 196.271 265.670,196.548 265.130,196.735 264.800 C 197.687 263.122,198.000 262.342,198.000 261.648 C 198.000 261.229,198.270 260.782,198.600 260.655 C 198.989 260.506,199.200 259.886,199.200 258.893 C 199.200 258.050,199.379 257.181,199.598 256.962 C 199.816 256.744,200.019 256.033,200.049 255.382 C 200.078 254.732,200.279 253.069,200.495 251.687 C 200.911 249.016,200.243 241.397,199.554 240.972 C 199.359 240.851,199.200 240.380,199.200 239.925 C 199.200 238.537,196.737 233.917,194.871 231.806 C 192.773 229.432,192.594 229.003,192.246 225.500 C 191.953 222.554,192.493 221.894,193.719 223.700 M313.900 231.476 C 313.515 231.576,313.200 231.804,313.200 231.983 C 313.200 232.161,312.795 232.399,312.300 232.513 C 311.254 232.752,308.875 233.574,307.985 234.004 C 307.646 234.167,306.612 234.429,305.687 234.585 C 304.761 234.742,303.903 235.034,303.778 235.235 C 303.654 235.436,302.438 235.614,301.076 235.631 C 298.409 235.664,294.232 236.696,296.600 236.737 C 299.637 236.789,305.823 235.305,311.300 233.210 C 315.876 231.460,316.057 231.534,316.327 235.261 C 316.541 238.226,316.791 238.005,308.405 242.268 C 306.097 243.440,304.462 244.400,304.770 244.400 C 305.589 244.400,308.400 243.101,308.400 242.723 C 308.400 242.545,308.850 242.400,309.400 242.400 C 309.950 242.400,310.400 242.262,310.400 242.094 C 310.400 241.926,311.285 241.369,312.367 240.855 C 313.449 240.342,314.701 239.579,315.150 239.161 C 315.599 238.742,316.154 238.400,316.383 238.400 C 316.867 238.400,316.884 238.256,316.800 234.804 C 316.718 231.401,316.248 230.862,313.900 231.476 M194.023 232.900 C 194.436 233.395,194.779 233.943,194.787 234.117 C 194.794 234.292,195.250 234.920,195.800 235.513 C 196.350 236.107,196.800 236.804,196.800 237.063 C 196.800 237.323,197.052 238.045,197.360 238.668 C 198.731 241.441,198.955 243.033,198.894 249.594 C 198.856 253.757,198.680 256.240,198.417 256.328 C 198.187 256.404,198.000 256.805,198.000 257.219 C 198.000 259.124,195.717 264.504,195.008 264.271 C 194.488 264.100,194.110 260.269,194.034 254.400 C 194.001 251.870,193.808 248.540,193.606 247.000 C 193.085 243.033,192.621 232.000,192.975 232.000 C 193.138 232.000,193.610 232.405,194.023 232.900 M301.057 245.214 C 298.755 246.089,298.355 246.400,299.533 246.400 C 300.010 246.400,300.400 246.220,300.400 246.000 C 300.400 245.780,300.918 245.600,301.551 245.600 C 302.184 245.600,302.926 245.330,303.200 245.000 C 303.819 244.254,303.502 244.285,301.057 245.214 M273.600 246.856 C 275.970 247.964,290.438 248.922,291.330 248.030 C 291.566 247.794,292.669 247.594,293.780 247.586 C 294.891 247.578,296.250 247.297,296.800 246.962 C 297.795 246.354,297.793 246.353,296.400 246.623 C 287.963 248.262,284.111 248.261,274.000 246.616 C 272.693 246.403,272.666 246.419,273.600 246.856 M211.473 322.660 C 211.323 322.810,211.198 326.278,211.196 330.367 C 211.192 337.383,211.499 341.850,212.459 348.800 C 212.687 350.450,213.010 352.880,213.177 354.200 C 213.715 358.466,214.504 362.590,214.856 362.980 C 215.045 363.189,215.202 363.909,215.205 364.580 C 215.212 366.123,215.601 367.600,216.000 367.600 C 216.682 367.600,216.726 365.581,216.185 359.247 C 215.872 355.591,215.613 351.169,215.608 349.421 C 215.600 346.388,215.303 343.296,214.336 336.200 C 214.097 334.440,213.764 331.920,213.597 330.600 C 212.830 324.523,212.150 321.983,211.473 322.660 M212.900 329.437 C 213.065 329.600,213.201 330.468,213.202 331.367 C 213.204 332.265,213.392 334.080,213.621 335.400 C 214.516 340.569,215.735 359.807,215.225 360.733 C 214.730 361.631,212.917 348.798,212.012 338.000 C 211.782 335.250,211.619 330.930,211.651 328.400 L 211.708 323.800 212.154 326.471 C 212.399 327.939,212.735 329.274,212.900 329.437 M222.937 355.419 C 222.296 357.091,223.507 379.465,224.604 386.200 C 224.962 388.400,225.411 391.370,225.602 392.800 C 225.793 394.230,226.137 396.120,226.365 397.000 C 226.594 397.880,226.785 399.178,226.790 399.884 C 226.801 401.258,227.968 403.974,228.555 403.990 C 228.752 403.996,228.801 402.709,228.665 401.100 C 228.530 399.505,228.322 395.680,228.202 392.600 C 227.922 385.363,227.206 377.070,225.976 366.800 C 225.009 358.728,224.787 357.219,224.436 356.295 C 223.932 354.970,223.260 354.577,222.937 355.419 M225.174 365.800 C 225.431 368.000,225.827 370.970,226.054 372.400 C 227.156 379.333,228.036 402.408,226.985 396.800 C 224.327 382.616,222.896 365.543,223.884 359.800 L 224.159 358.200 224.433 360.000 C 224.584 360.990,224.917 363.600,225.174 365.800 " stroke="none" fill="#a69f8b" fill-rule="evenodd"></path></g></svg>